# AST/ASF file generated using VICON BodyLanguage
# -----------------------------------------------
:version 1.10
:name VICON
:units
  mass 1.0
  length 0.45
  angle deg
:documentation
   .ast/.asf automatically generated from VICON data using
   VICON BodyBuilder and BodyLanguage model FoxedUp or BRILLIANT.MOD
:root
   order TX TY TZ RX RY RZ
   axis XYZ
   position 0 0 0  
   orientation 0 0 0 
:bonedata
  begin
     id 1 
     name lhipjoint
     direction 0.623529 -0.717805 0.309788 
     length 2.23224 
     axis 0 0 0  XYZ
  end
  begin
     id 2 
     name lfemur
     direction 0.34202 -0.939693 0  
     length 7.11402  
     axis 0 0 20  XYZ
    dof rx ry rz
    limits (-160.0 20.0)
           (-70.0 70.0)
           (-60.0 70.0)
  end
  begin
     id 3 
     name ltibia
     direction 0.34202 -0.939693 0   
     length 6.78496   
     axis 0 0 20   XYZ
    dof rx
    limits (-10.0 170.0)
  end
  begin
     id 4 
     name lfoot
     direction 0.125078 -0.343648 0.930732   
     length 1.84054   
     axis -90 7.62852e-016 20   XYZ
    dof rx rz
    limits (-45.0 90.0)
           (-70.0 20.0)
  end
  begin
     id 5 
     name ltoes
     direction 1.53565e-011 -4.21893e-011 1   
     length 0.916474   
     axis -90 7.62852e-016 20   XYZ
    dof rx
    limits (-90.0 20.0)
  end
  begin
     id 6 
     name rhipjoint
     direction -0.564688 -0.757748 0.327026   
     length 2.11457  
     axis 0 0 0  XYZ 
  end
  begin
     id 7 
     name rfemur
     direction -0.34202 -0.939693 0   
     length 7.14609   
     axis 0 0 -20   XYZ
    dof rx ry rz
    limits (-160.0 20.0)
           (-70.0 70.0)
           (-70.0 60.0)
  end
  begin
     id 8 
     name rtibia
     direction -0.34202 -0.939693 0   
     length 6.78101   
     axis 0 0 -20   XYZ
    dof rx
    limits (-10.0 170.0)
 end
 begin
     id 9 
     name rfoot
     direction -0.0992671 -0.272734 0.956955   
     length 1.96168  
     axis -90 -7.62852e-016 -20   XYZ
    dof rx rz
    limits (-45.0 90.0)
           (-20.0 70.0)
  end
  begin
     id 10 
     name rtoes
     direction -1.5356e-011 -4.21891e-011 1   
     length 0.982933   
     axis -90 -7.62852e-016 -20   XYZ
    dof rx
    limits (-90.0 20.0)
  end
  begin
     id 11 
     name lowerback
     direction -0.00596953 0.998668 0.0512524   
     length 1.87557   
     axis 0 0 0   XYZ
    dof rx ry rz
    limits (-20.0 45.0)
           (-30.0 30.0)
           (-30.0 30.0)
  end
  begin
     id 12 
     name upperback
     direction 0.00584879 0.999652 0.0257308   
     length 1.87883   
     axis 0 0 0   XYZ
    dof rx ry rz
    limits (-20.0 45.0)
           (-30.0 30.0)
           (-30.0 30.0)
  end
  begin
     id 13 
     name thorax
     direction 0.010104 0.999947 0.00178881   
     length 1.87779   
     axis 0 0 0   XYZ
    dof rx ry rz
    limits (-20.0 45.0)
           (-30.0 30.0)
           (-30.0 30.0)
  end
  begin
     id 14 
     name lowerneck
     direction 0.0120771 0.995934 -0.0892773   
     length 1.40897   
     axis 0 0 0   XYZ
    dof rx ry rz
    limits (-20.0 45.0)
           (-30.0 30.0)
           (-30.0 30.0)
  end
  begin
     id 15 
     name upperneck
     direction -0.030568 0.999465 -0.0116366   
     length 1.38661   
     axis 0 0 0   XYZ
    dof rx ry rz
    limits (-20.0 45.0)
           (-30.0 30.0)
           (-30.0 30.0)
  end
  begin
     id 16
     name head
     direction -0.0170715 0.999854 -0.00104426  
     length 1.47052  
     axis 0 0 0   XYZ
    dof rx ry rz
    limits (-20.0 45.0)
           (-30.0 30.0)
           (-30.0 30.0)
  end
  begin
     id 17 
     name lclavicle
     direction 0.977763 0.206143 0.038532  
     length 3.02424  
     axis 0 0 0   XYZ
    dof ry rz
    limits (-20.0 10.0)
           (0.0 20.0)
  end
  begin
     id 18 
     name lhumerus
     direction 1 -4.48965e-011 -2.62654e-027   
     length 4.68382   
     axis 180 -30 -90   XYZ
    dof rx ry rz
    limits (-60.0 90.0)
           (-90.0 90.0)
           (-90.0 90.0)
  end
  begin
     id 19
     name lradius
     direction 1 -4.48973e-011 -1.54954e-027   
     length 2.98124   
     axis 180 -30 -90   XYZ
    dof rx
    limits (-10.0 170.0)
  end
  begin
     id 20
     name lwrist
     direction 1 -4.48959e-011 7.20928e-028   
     length 1.49062   
     axis -5.52449e-016 90 90   XYZ
    dof ry
    limits (-180.0 0.0)
 end
  begin
     id 21 
     name lhand
     direction 1 -4.48971e-011 1.44186e-027   
     length 0.707595   
     axis -9.20027e-016 90 90   XYZ
    dof rx rz
    limits (-90.0 90.0)
           (-45.0 45.0)
  end
  begin
     id 22 
     name lfingers
     direction 1 -4.48985e-011 2.88371e-027   
     length 0.570481   
     axis -1.84005e-015 90 90   XYZ
    dof rx
    limits (0.0 90.0)
  end
  begin
     id 23
     name lthumb
     direction 0.707107 -6.34929e-011 0.707107   
     length 0.819101   
     axis -90 45 2.85299e-015   XYZ
    dof rx rz
    limits (-45.0 45.0)
           (-45.0 45.0)
  end
  begin
     id 24 
     name rclavicle
     direction -0.958661 0.284411 -0.00895327   
     length 3.11921  
     axis 0 0 0   XYZ 
    dof ry rz
    limits (-10.0 20.0)
           (-20.0 0.0)
  end
  begin
     id 25 
     name rhumerus
     direction -1 -4.48963e-011 -4.22193e-027  
     length 4.75876   
     axis 180 30 90   XYZ
    dof rx ry rz
    limits (-90.0 60.0)
           (-90.0 90.0)
           (-90.0 90.0)
  end
  begin
     id 26 
     name rradius
     direction -1 -4.48968e-011 -1.07616e-027   
     length 2.93293   
     axis 180 30 90   XYZ
    dof rx
    limits (-10.0 170.0)
  end
  begin
     id 27 
     name rwrist
     direction -1 -4.48965e-011 7.20928e-028   
     length 1.46647   
     axis -5.52449e-016 -90 -90   XYZ
    dof ry
    limits (-180.0 0.0)
  end
  begin
     id 28
     name rhand
     direction -1 -4.48971e-011 1.44186e-027   
     length 0.831748   
     axis -9.20027e-016 -90 -90   XYZ
    dof rx rz
    limits (-90.0 90.0)
           (-45.0 45.0)
  end
  begin
     id 29
     name rfingers
     direction -1 -4.48961e-011 2.88371e-027   
     length 0.670577   
     axis -1.84005e-015 -90 -90   XYZ
    dof rx
    limits (0.0 90.0)
  end
  begin
     id 30
     name rthumb
     direction -0.707107 -6.34929e-011 0.707107   
     length 0.962818   
     axis -90 -45 -2.85299e-015   XYZ
    dof rx rz
    limits (-45.0 45.0)
           (-45.0 45.0)
  end
:hierarchy
  begin
    root lhipjoint rhipjoint lowerback
    lhipjoint lfemur
    lfemur ltibia
    ltibia lfoot
    lfoot ltoes
    rhipjoint rfemur
    rfemur rtibia
    rtibia rfoot
    rfoot rtoes
    lowerback upperback
    upperback thorax
    thorax lowerneck lclavicle rclavicle
    lowerneck upperneck
    upperneck head
    lclavicle lhumerus
    lhumerus lradius
    lradius lwrist
    lwrist lhand lthumb
    lhand lfingers
    rclavicle rhumerus
    rhumerus rradius
    rradius rwrist
    rwrist rhand rthumb
    rhand rfingers
  end

#!OML:ASF E:\id_vita\Project 1\Capture day 1\Session 1\Female.ASF
:FULLY-SPECIFIED
:DEGREES
555
root -13.1768 14.9093 1.40279 -59.7756 87.9497 -131.314
lowerback 6.9591 0.859919 -5.91979
upperback 0.503249 0.654001 -1.60578
thorax -3.43208 0.414338 1.59378
lowerneck -1.14032 -1.14421 -7.8093
upperneck -31.6225 3.06794 13.5697
head -10.0388 1.83432 5.95011
rclavicle -1.49089e-014 -1.0138e-014
rhumerus 36.0055 20.704 -67.1868
rradius 54.772
rwrist 18.252
rhand -47.4674 76.6145
rfingers 7.12502
rthumb -20.1566 47.6402
lclavicle -1.49089e-014 -1.0138e-014
lhumerus 50.2471 -17.4157 42.4063
lradius 49.5827
lwrist -21.4193
lhand -55.0558 68.4081
lfingers 7.12502
lthumb -27.4335 983.569
rfemur -105.747 4.11423 26.6407
rtibia 49.6846
rfoot -16.6899 -9.93515
rtoes -16.7408
lfemur -60.6858 -10.1569 -16.9302
ltibia 24.3244
lfoot -28.8461 24.2362
ltoes -6.50978
556
root -13.1227 14.8996 1.40576 -64.9001 88.0357 -136.213
lowerback 7.23548 0.800217 -5.90171
upperback 0.447667 0.551352 -1.68528
thorax -3.63667 0.369563 1.50802
lowerneck -1.18954 -1.1327 -7.78819
upperneck -31.348 3.09953 13.7474
head -9.92957 1.82415 5.99799
rclavicle 1.13307e-014 -2.13197e-014
rhumerus 36.0956 21.1074 -67.0771
rradius 54.12
rwrist 19.6618
rhand -49.3458 72.9479
rfingers 7.12502
rthumb -21.9611 44.1745
lclavicle 1.13307e-014 -2.13197e-014
lhumerus 50.0357 -17.4887 42.4803
lradius 49.5798
lwrist -21.7278
lhand -54.7733 66.4164
lfingers 7.12502
lthumb -27.1633 985.519
rfemur -105.918 4.14208 26.4947
rtibia 49.3926
rfoot -16.6471 -9.89399
rtoes -16.6704
lfemur -59.9395 -10.2697 -17.1433
ltibia 23.8662
lfoot -28.8912 24.0088
ltoes -6.37848
557
root -13.0693 14.8912 1.41104 -64.185 88.1695 -135.252
lowerback 7.49108 0.782777 -5.98488
upperback 0.488097 0.502128 -1.81761
thorax -3.734 0.348911 1.41988
lowerneck -1.50414 -1.13915 -7.87274
upperneck -31.102 3.16003 14.0185
head -9.78568 1.85193 6.09747
rclavicle -1.74931e-014 9.39258e-015
rhumerus 35.7218 21.0246 -67.5449
rradius 54.8395
rwrist 18.5635
rhand -48.3503 78.5781
rfingers 7.12502
rthumb -21.005 49.6956
lclavicle -1.74931e-014 9.39258e-015
lhumerus 50.0319 -17.3899 42.4716
lradius 49.4658
lwrist -22.0069
lhand -56.3685 72.1894
lfingers 7.12502
lthumb -28.6884 979.994
rfemur -106.081 4.29842 26.138
rtibia 49.1408
rfoot -16.7202 -9.61829
rtoes -15.7236
lfemur -59.1435 -10.4951 -17.1724
ltibia 23.4077
lfoot -29.067 23.9345
ltoes -5.80978
558
root -13.0246 14.8766 1.41457 -65.9834 88.1794 -137.127
lowerback 7.26582 0.767299 -5.9155
upperback 0.484866 0.503413 -1.86627
thorax -3.60997 0.345227 1.33287
lowerneck -1.67192 -1.16465 -7.8141
upperneck -30.9549 3.12574 14.0383
head -9.69338 1.83259 6.08769
rclavicle 5.88403e-014 7.00219e-014
rhumerus 35.6272 21.5486 -67.0986
rradius 54.4229
rwrist 17.5227
rhand -48.4405 73.46
rfingers 7.12502
rthumb -21.0916 44.5871
lclavicle 5.88403e-014 7.00219e-014
lhumerus 50.226 -17.3788 42.2792
lradius 49.356
lwrist -22.101
lhand -55.1844 67.0631
lfingers 7.12502
lthumb -27.5565 984.934
rfemur -106.603 4.44194 25.9283
rtibia 48.9081
rfoot -16.7991 -9.17759
rtoes -15.2812
lfemur -58.8422 -11.0253 -16.6471
ltibia 22.9922
lfoot -29.138 24.2385
ltoes -4.70799
559
root -12.9731 14.865 1.41713 -73.7278 88.1629 -144.744
lowerback 7.27744 0.730924 -5.81196
upperback 0.479341 0.462578 -1.8681
thorax -3.61855 0.323762 1.27728
lowerneck -1.4687 -1.15763 -7.73073
upperneck -30.9843 3.1082 13.9735
head -9.74012 1.80859 6.05208
rclavicle -6.55989e-015 -5.19822e-014
rhumerus 35.7679 21.5615 -66.9498
rradius 54.357
rwrist 17.8054
rhand -48.7253 74.8695
rfingers 7.12502
rthumb -21.3652 46.0273
lclavicle -6.55989e-015 -5.19822e-014
lhumerus 50.2 -17.5036 42.1715
lradius 49.4542
lwrist -22.231
lhand -54.626 67.7967
lfingers 7.12502
lthumb -27.0224 984.116
rfemur -106.806 4.42903 25.8914
rtibia 48.6507
rfoot -16.6927 -9.12664
rtoes -16.4921
lfemur -58.2957 -11.2824 -16.57
ltibia 22.5611
lfoot -29.4051 24.0021
ltoes -3.26064
560
root -12.9177 14.8508 1.42418 -77.4689 88.2054 -148.347
lowerback 7.31936 0.710518 -5.87258
upperback 0.48502 0.427783 -1.89955
thorax -3.63409 0.308168 1.28174
lowerneck -1.33951 -1.13522 -7.83532
upperneck -31.0421 3.15094 14.0331
head -9.79306 1.83162 6.09496
rclavicle -8.94531e-015 -1.88845e-014
rhumerus 35.4458 21.4322 -67.1963
rradius 54.7978
rwrist 17.7018
rhand -48.4752 75.6143
rfingers 7.12502
rthumb -21.125 46.7451
lclavicle -8.94531e-015 -1.88845e-014
lhumerus 50.0985 -17.5433 42.0189
lradius 49.6256
lwrist -22.2143
lhand -54.6111 67.7887
lfingers 7.12502
lthumb -27.0082 984.122
rfemur -106.975 4.50899 25.6475
rtibia 48.3518
rfoot -16.4592 -8.9877
rtoes -17.3176
lfemur -57.7225 -11.4647 -16.5721
ltibia 22.1423
lfoot -29.4807 23.8559
ltoes -1.72327
561
root -12.8626 14.8392 1.43085 -80.9562 88.2787 -151.712
lowerback 7.32676 0.711886 -6.01576
upperback 0.494077 0.418887 -1.88429
thorax -3.62946 0.306161 1.37839
lowerneck -1.25061 -1.13944 -7.9918
upperneck -31.0238 3.12729 14.0692
head -9.80076 1.82869 6.13944
rclavicle 2.42517e-014 -1.38155e-014
rhumerus 35.4557 21.6921 -66.9431
rradius 54.6469
rwrist 17.7007
rhand -48.9809 73.3247
rfingers 7.12502
rthumb -21.6106 44.5106
lclavicle 2.42517e-014 -1.38155e-014
lhumerus 50.1261 -17.6163 41.9396
lradius 49.718
lwrist -22.0792
lhand -54.6255 68.3935
lfingers 7.12502
lthumb -27.0219 983.519
rfemur -107.174 4.55108 25.1864
rtibia 48.0304
rfoot -16.2181 -8.5176
rtoes -16.3973
lfemur -57.159 -11.5682 -16.7143
ltibia 21.69
lfoot -29.3291 23.9527
ltoes -1.35666
562
root -12.8096 14.8305 1.43682 -84.4315 88.2553 -154.997
lowerback 7.41191 0.730388 -6.11049
upperback 0.498568 0.430764 -1.82128
thorax -3.67463 0.314809 1.49466
lowerneck -1.18311 -1.13418 -7.97342
upperneck -30.9665 3.09876 14.0032
head -9.78801 1.81158 6.11086
rclavicle 5.84427e-014 2.38542e-014
rhumerus 35.2831 21.9186 -66.7691
rradius 54.7238
rwrist 17.391
rhand -48.7593 72.7477
rfingers 7.12502
rthumb -21.3978 43.9093
lclavicle 5.84427e-014 2.38542e-014
lhumerus 50.2112 -17.7299 41.97
lradius 49.5246
lwrist -22.3221
lhand -54.4349 68.0832
lfingers 7.12502
lthumb -26.8396 983.802
rfemur -107.288 4.60649 24.9131
rtibia 47.7214
rfoot -15.8718 -8.23461
rtoes -14.0105
lfemur -56.5173 -11.6312 -16.7986
ltibia 21.2368
lfoot -29.3104 24.0024
ltoes -1.16069
563
root -12.7574 14.8195 1.43867 -90.7903 88.1476 -161.185
lowerback 7.53313 0.685161 -5.99896
upperback 0.495648 0.371061 -1.8087
thorax -3.74067 0.285403 1.45076
lowerneck -1.33616 -1.14459 -7.85909
upperneck -30.8133 3.07834 13.9811
head -9.69783 1.79474 6.07376
rclavicle -2.64384e-014 -1.34677e-014
rhumerus 34.9628 21.942 -66.9516
rradius 55.0185
rwrist 17.491
rhand -48.7 73.307
rfingers 7.12502
rthumb -21.3409 44.4621
lclavicle -2.64384e-014 -1.34677e-014
lhumerus 50.2075 -17.8195 41.9052
lradius 49.4691
lwrist -22.3793
lhand -54.3518 67.9561
lfingers 7.12502
lthumb -26.7601 983.917
rfemur -107.45 4.55569 24.8369
rtibia 47.4767
rfoot -15.6469 -7.94511
rtoes -15.056
lfemur -55.8837 -11.8376 -16.7541
ltibia 20.7327
lfoot -29.3537 23.9252
ltoes -0.750651
564
root -12.7067 14.8053 1.44005 -95.6546 88.03 -166.067
lowerback 7.39784 0.631477 -5.87293
upperback 0.422565 0.31668 -1.80141
thorax -3.73644 0.257187 1.39434
lowerneck -1.24641 -1.188 -7.8629
upperneck -30.7033 3.00124 14.0597
head -9.66317 1.73985 6.10536
rclavicle -4.35338e-014 9.93923e-016
rhumerus 34.8463 21.9447 -67.0879
rradius 55.0362
rwrist 17.7017
rhand -48.9732 74.1498
rfingers 7.12502
rthumb -21.6032 45.3349
lclavicle -4.35338e-014 9.93923e-016
lhumerus 50.0083 -17.9926 41.8286
lradius 49.6104
lwrist -22.3813
lhand -54.5821 67.7566
lfingers 7.12502
lthumb -26.9803 984.15
rfemur -107.803 4.52621 24.682
rtibia 47.2855
rfoot -15.419 -7.44793
rtoes -14.0096
lfemur -55.4737 -12.0312 -16.6511
ltibia 20.2389
lfoot -29.3341 23.8336
ltoes -0.506085
565
root -12.6569 14.792 1.44132 -101.247 87.9271 -171.666
lowerback 7.27679 0.590991 -5.80782
upperback 0.339195 0.274041 -1.74181
thorax -3.75248 0.236451 1.42466
lowerneck -0.979567 -1.26107 -8.03624
upperneck -30.661 2.85171 14.1439
head -9.67808 1.65827 6.18102
rclavicle -1.11319e-014 3.0265e-014
rhumerus 34.6116 21.7276 -67.3197
rradius 55.2197
rwrist 18.9922
rhand -49.457 75.347
rfingers 7.12502
rthumb -22.0678 46.5862
lclavicle -1.11319e-014 3.0265e-014
lhumerus 49.8646 -18.1899 41.8112
lradius 49.6763
lwrist -22.4654
lhand -54.7832 68.7994
lfingers 7.12502
lthumb -27.1728 983.137
rfemur -108.136 4.45031 24.3614
rtibia 47.1477
rfoot -14.9754 -7.08085
rtoes -13.7882
lfemur -55.061 -12.1211 -16.7505
ltibia 19.7949
lfoot -29.1544 23.696
ltoes -0.93751
566
root -12.6054 14.7766 1.44479 -104.535 87.9441 -174.812
lowerback 7.30658 0.605043 -5.86345
upperback 0.33374 0.285754 -1.73795
thorax -3.77606 0.243931 1.45823
lowerneck -0.986457 -1.34618 -8.1566
upperneck -30.5324 2.70878 14.2311
head -9.60898 1.58883 6.24002
rclavicle 5.22804e-014 3.66261e-014
rhumerus 34.2358 21.7685 -67.4286
rradius 55.4446
rwrist 18.9506
rhand -49.4894 74.2325
rfingers 7.12502
rthumb -22.099 45.4753
lclavicle 5.22804e-014 3.66261e-014
lhumerus 49.8656 -18.301 41.723
lradius 49.6731
lwrist -22.5718
lhand -54.5025 68.6814
lfingers 7.12502
lthumb -26.9042 983.213
rfemur -108.321 4.45469 23.9657
rtibia 47.0317
rfoot -14.3765 -6.8468
rtoes -14.2762
lfemur -54.5016 -12.1122 -17.0413
ltibia 19.4357
lfoot -28.8524 23.7239
ltoes -1.33347
567
root -12.5521 14.7532 1.44651 -110.112 87.9192 -180.277
lowerback 7.29525 0.573827 -5.8744
upperback 0.335811 0.244229 -1.77522
thorax -3.76454 0.223515 1.4301
lowerneck -1.00095 -1.36131 -8.15263
upperneck -30.4595 2.69735 14.3001
head -9.57732 1.57555 6.26228
rclavicle -3.99557e-014 -2.68856e-014
rhumerus 34.0434 21.9534 -67.4594
rradius 55.4073
rwrist 18.1032
rhand -49.2091 73.4737
rfingers 7.12502
rthumb -21.8298 44.685
lclavicle -3.99557e-014 -2.68856e-014
lhumerus 49.8175 -18.3809 41.6983
lradius 49.6366
lwrist -22.6071
lhand -54.2868 66.8076
lfingers 7.12502
lthumb -26.6978 985.056
rfemur -108.549 4.33707 23.631
rtibia 46.9321
rfoot -13.7698 -6.54451
rtoes -14.4801
lfemur -53.9488 -12.0252 -17.5816
ltibia 19.1129
lfoot -28.4314 23.9623
ltoes -1.9527
